# xmcd
#
# Track frame offsets: 
#        150
#        16495
#        27197
#        39887
#        58457
#        76120
#        86295
#        98475
#        116207
#        126745
#        145262
#        158805
#        169622
#
# Disc length: 2414 seconds
#
# Revision: 14
# Processed by: cddbd v1.5.2PL0 Copyright (c) Steve Scherf et al.
# Submitted via: ExactAudioCopyFreeDBPlugin 1.0
#
DISCID=a2096c0d
DTITLE=Various Artist - French Café
DYEAR=2003
DGENRE=Chanson
TTITLE0=Paris Combo - Fibre de Verre
TTITLE1=Serge Gainsbourg - Marilou Sous la Neige
TTITLE2=Barbara - Si la Photo est Bonne
TTITLE3=Enzo Enzo - Juste Quelqu'un de Bien
TTITLE4=Georges Brassens - Je M'Suis Fait Tout Petit
TTITLE5=Jane Birkin - Elaeudanla Téïtéïa
TTITLE6=Coralie Clément - La Mer Opale
TTITLE7=Mathieu Boogaerts - Ondulé
TTITLE8=Brigitte Bardot - Un Jour Comme un Autre
TTITLE9=Paris Combo - On N'a Pas Besoin
TTITLE10=Sanseverino - Mal ô Mains
TTITLE11=Baguette Quartette - En Douce
TTITLE12=Polo - La Fée Clochette
EXTD=Putumayo World Musicwww.putumayo.com YEAR: 2003
EXTT0=
EXTT1=
EXTT2=
EXTT3=
EXTT4=
EXTT5=
EXTT6=
EXTT7=
EXTT8=
EXTT9=
EXTT10=
EXTT11=
EXTT12=
PLAYORDER=
